<svg width="24" height="24" viewBox="0 0 24 24" fill="none" xmlns="http://www.w3.org/2000/svg">
<path fill-rule="evenodd" clip-rule="evenodd" d="M1.40112e-05 12C1.40112e-05 5.37265 5.37266 0 12 0C18.6274 0 24 5.37265 24 12C24 18.6273 18.6274 24 12 24C9.92819 24 7.97582 23.4742 6.2735 22.5488L1.54829 23.4273C1.41476 23.4521 1.27722 23.4439 1.14754 23.4037C1.01785 23.3634 0.899912 23.2921 0.803888 23.1961C0.707865 23.1001 0.63664 22.9822 0.596358 22.8525C0.556075 22.7228 0.547944 22.5853 0.572665 22.4517L1.45229 17.7265C0.496318 15.9694 -0.00304954 14.0003 1.40112e-05 12ZM12 6.69767C12.222 6.69767 12.435 6.78588 12.592 6.94289C12.749 7.0999 12.8372 7.31284 12.8372 7.53488V12C12.8372 12.222 12.749 12.435 12.592 12.592C12.435 12.749 12.222 12.8372 12 12.8372C11.778 12.8372 11.565 12.749 11.408 12.592C11.251 12.435 11.1628 12.222 11.1628 12V7.53488C11.1628 7.31284 11.251 7.0999 11.408 6.94289C11.565 6.78588 11.778 6.69767 12 6.69767ZM12.6329 17.0244C12.7092 16.9432 12.7686 16.8476 12.8075 16.7432C12.8464 16.6388 12.864 16.5276 12.8594 16.4163C12.8548 16.305 12.828 16.1957 12.7806 16.0949C12.7332 15.994 12.6662 15.9037 12.5834 15.8291C12.5006 15.7545 12.4038 15.6971 12.2986 15.6605C12.1934 15.6238 12.0819 15.6084 11.9707 15.6154C11.8595 15.6223 11.7508 15.6514 11.651 15.7009C11.5512 15.7504 11.4622 15.8193 11.3894 15.9036L11.3782 15.9159C11.3019 15.9971 11.2426 16.0927 11.2037 16.1971C11.1648 16.3015 11.1472 16.4126 11.1518 16.524C11.1564 16.6353 11.1832 16.7446 11.2306 16.8454C11.278 16.9463 11.345 17.0366 11.4278 17.1112C11.5105 17.1858 11.6074 17.2431 11.7126 17.2798C11.8178 17.3165 11.9292 17.3318 12.0404 17.3249C12.1516 17.3179 12.2603 17.2889 12.3602 17.2394C12.46 17.1899 12.5489 17.121 12.6218 17.0367L12.6329 17.0244Z" fill="#121212" fill-opacity="0.5"/>
</svg>
